<svg width="45" height="34" viewBox="0 0 45 34" fill="none" xmlns="http://www.w3.org/2000/svg">
<g clip-path="url(#clip0_309_573)">
<path d="M31.82 12.78H40.09C42.34 12.78 44.16 14.6 44.16 16.85C44.16 19.1 42.34 20.92 40.09 20.92H31.52V29.49C31.52 31.74 29.7 33.56 27.45 33.56H27.43C25.18 33.56 23.36 31.74 23.36 29.49V21.19L12.82 32.29C12.05 33.1 10.98 33.56 9.87 33.56H9.44C5.87 33.56 4.03 29.29 6.48 26.69L11.94 20.91H4.07C1.82 20.91 0 19.09 0 16.84C0 14.59 1.82 12.77 4.07 12.77H12.52V4.35C12.52 2.1 14.34 0.279999 16.59 0.279999H16.61C18.86 0.279999 20.68 2.1 20.68 4.35V12.17L31.37 1.47C32.13 0.709999 33.17 0.279999 34.25 0.279999H34.43C38.05 0.279999 39.87 4.64 37.33 7.21L31.83 12.77L31.82 12.78Z" fill="white"/>
</g>
<defs>
<clipPath id="clip0_309_573">
<rect width="44.17" height="33.28" fill="white" transform="translate(0 0.279999)"/>
</clipPath>
</defs>
</svg>
