<svg width="45" height="34" viewBox="0 0 45 34" fill="none" xmlns="http://www.w3.org/2000/svg">
<path d="M31.82 12.5H40.09C42.34 12.5 44.16 14.32 44.16 16.57C44.16 18.82 42.34 20.64 40.09 20.64H31.52V29.21C31.52 31.46 29.7 33.28 27.45 33.28H27.43C25.18 33.28 23.36 31.46 23.36 29.21V20.91L12.82 32.01C12.05 32.82 10.98 33.28 9.87 33.28H9.44C5.87 33.28 4.03 29.01 6.48 26.41L11.94 20.63H4.07C1.82 20.63 0 18.81 0 16.56C0 14.31 1.82 12.49 4.07 12.49H12.52V4.07C12.52 1.82 14.34 0 16.59 0H16.61C18.86 0 20.68 1.82 20.68 4.07V11.89L31.37 1.19C32.13 0.43 33.17 0 34.25 0H34.43C38.05 0 39.87 4.36 37.33 6.93L31.83 12.49L31.82 12.5Z" fill="black"/>
</svg>
